<?xml version="1.0" encoding="utf-8"?>
<!-- Generator: Adobe Illustrator 17.1.0, SVG Export Plug-In . SVG Version: 6.00 Build 0)  -->
<!DOCTYPE svg PUBLIC "-//W3C//DTD SVG 1.1//EN" "http://www.w3.org/Graphics/SVG/1.1/DTD/svg11.dtd">
<svg version="1.1" id="Capa_1" xmlns="http://www.w3.org/2000/svg" xmlns:xlink="http://www.w3.org/1999/xlink" x="0px" y="0px"
	 width="500px" height="500px" viewBox="0 0 500 500" enable-background="new 0 0 500 500" xml:space="preserve">
<path d="M436.6,219.6c-22.4-22.4-48.2-37.5-73.3-44.6c-0.5,9-1.6,18.3-3.6,27.7c-1,4.8-2.2,9.7-3.6,14.5
	c14,16.9,20.2,34.4,25.3,49.8c5.5,16.9,9.8,31.5,19.8,44.5c2.8,3.7,6.3,7.7,10.3,11.7c10.5,10.5,24.3,21.2,36.6,29.2
	c12,8.1,23.9,13.5,26.3,13.6c0.3,0.1,0.6,0.2,0.8,0.3C498.6,328.4,483.3,266.3,436.6,219.6z"/>
<path d="M456.9,386.4c-6.8-3.1-14.1-7.4-22.4-12.7c-13.7-8.9-28.5-20.4-40.9-32.7c-4.7-4.7-9-9.5-12.7-14.4
	c-13.5-17.9-18.5-36-23.8-52.2c-3.3-10-6.6-19.3-11.6-28.2c-12.9,29.2-32.4,57.4-57,82c-0.9,0.9-1.8,1.7-2.7,2.6
	c5.4,7.3,11.6,14.5,18.4,21.3C353.5,401.3,419.8,415.6,456.9,386.4z"/>
<path d="M31.8,340.4c0.4-0.1,0.8-0.4,1.2-0.4c3.4-0.2,20.7-8.1,38.1-19.8c17.9-11.7,37.8-27.2,53.1-42.5c5.8-5.8,10.9-11.6,15-16.9
	c14.4-18.9,20.7-40.1,28.7-64.7c8-24.3,17.9-52.1,42.1-78.6c1-1.1,2.2-2.4,3.5-3.8c19.5-19.4,41.2-26.6,60.2-33.9
	c8.2-3.2,16.1-6.4,23.9-10.3c-16.5-9.3-36-13.9-56.9-13.9c-49.1,0-106.4,25-153.1,71.7C19.8,195.2-2.3,285.3,31.8,340.4z"/>
<path d="M337.9,234.8c3.7-9.2,6.7-18.3,9-27.4c3-11.9,4.7-23.7,5.1-35.1c1-29.6-6.8-56.5-24.1-76.9c-14.7,9.1-28.9,14.8-41.2,19.5
	c-20.1,7.5-34.8,13.1-46.7,25.1c-0.6,0.6-1.3,1.4-2.2,2.4c-18.5,20.3-26.3,41.1-34.1,64.8c-7.7,23.5-14.9,49.9-34.6,75.8
	c-5.4,7.1-11.7,14.1-18.5,20.9c-17.9,17.9-39.5,34.6-59.4,47.5c-12,7.7-22.7,13.9-32.5,18.5c18.7,14.7,42.5,21.8,68.7,21.8
	c48.7,0,105.4-24.6,151.9-70.6c0.4-0.4,0.8-0.8,1.2-1.1C306.6,293.9,325.9,264.3,337.9,234.8z"/>
</svg>
