<?xml version="1.0" encoding="utf-8"?>
<!-- Generator: Adobe Illustrator 18.0.0, SVG Export Plug-In . SVG Version: 6.00 Build 0)  -->
<!DOCTYPE svg PUBLIC "-//W3C//DTD SVG 1.1//EN" "http://www.w3.org/Graphics/SVG/1.1/DTD/svg11.dtd">
<svg version="1.1" id="Capa_1" xmlns="http://www.w3.org/2000/svg" xmlns:xlink="http://www.w3.org/1999/xlink" x="0px" y="0px"
	 viewBox="0 0 48 48" enable-background="new 0 0 48 48" xml:space="preserve">
<g id="Layer_1">
	<g>
		<path d="M33.2,41.9h-2.3V25H6.1v16.9H3.3c-1.4,0-2.5,1.1-2.5,2.5c0,1.4,1.1,2.5,2.5,2.5h29.9c1.4,0,2.5-1.1,2.5-2.5
			C35.7,43,34.6,41.9,33.2,41.9z"/>
		<path d="M42.4,1.1c-2.2,0-4,1.8-4,4c0,0,0,0,0,0H21.8c-2.9,0-5.4,2.4-5.4,5.3v2.1c-3.6,0.5-6.7,2.6-8.7,5.4H3.4
			c-1.4,0-2.5,1.1-2.5,2.5c0,1.4,1.1,2.5,2.5,2.5h29.9c1.4,0,2.5-1.1,2.5-2.5c0-1.4-1.1-2.5-2.5-2.5h-4.4c-2-2.8-5-4.8-8.5-5.3v-2.2
			c0-0.8,0.6-1.4,1.3-1.4c0,0,15.4,0,20.5,0c1.8,0,4-1.8,4-4C46.3,2.9,44.5,1.1,42.4,1.1z"/>
	</g>
</g>
</svg>
